<?xml version="1.0" encoding="UTF-8"?><svg id="a" xmlns="http://www.w3.org/2000/svg" viewBox="0 0 2800 1221"><g id="b"><path d="M1104,584c-1.91-3.69-6.74-3.57-11-5-11.88-3.97-11.47-17.25-24-34-8.33-11.14-10.58-8.03-23-22-10.03-11.28-13.43-18.78-20-29-3.45-5.37-5.76-8.35-44-49,0,0-11.09-11.79-40-41,0,0-1.78-1.8-29-24-4.51-3.68-6.83-5.53-10-6-11.01-1.63-20.06,12.41-33,28-15.51,18.68-34.79,33.88-52,51-20.45,20.34-26.26,25.73-30.47,28.93-1.21.92-.75.52-3.38,2.42-5.89,4.24-18.39,13.42-34.15,26.65-7.85,6.59-11.77,9.9-15,13-23.32,22.4-39.77,51.69-51,61-4.04,3.35-8,6-8,6-.79.53-2.74,1.82-8.64,5.24-3.2,1.86-4.8,2.79-8.36,4.76-17.86,9.86-71.23,67.82-83,80-1.01,1.04-5.14,5.29-7,12-.75,2.71-2.77,9.98,1,14,4.31,4.6,13.5,2.1,18,0,3.99-1.86,6.42-4.4,7-5,9.83-10.21,22.03-17.93,32-28,30.63-30.94,36.39-33.33,72-71,19.65-20.79,14.14-16.06,33-36,62.37-65.93,42.35-32.81,87-74,3.63-3.35,12.13-11.33,22-10,6.59.89,10.96,5.46,17,12,9.84,10.67,19.13,20.73,17,31-2.11,10.18-13.14,9.41-21,25-4.07,8.07-6.36,18.68-3,21,2.33,1.61,5.85-1.84,14-5,8.6-3.33,18.07-4.66,25-4,14.09,1.34,12.44,10.09,28,14,12.89,3.24,26.16.19,37,6,1.27.68,3.18,1.84,4,4,1.92,5.06-3.8,11.51-6,14,0,0-10.64,12.06-51,72-.97,1.45-4.77,7.24-4,14,.38,3.37,1.63,4.65,2,5,1.83,1.74,4.48,1.77,11,1,7.33-.87,10.99-1.3,13-2,7.19-2.51,9.9-7.05,16-13,6.92-6.75,13.12-10.39,21-15,13.5-7.91,22.31-13.07,34-13,4.73.03,8.44.9,14-1,5.3-1.81,7.33-4.45,13-9,10.83-8.69,16.33-13.11,23-13,8.82.14,10.33,8.03,20,8,7.93-.02,14.09-5.35,16-7,6.53-5.64,4.82-9.41,13-17,1.62-1.5,3.95-3.46,6-7,1.66-2.86,2.32-5.35,3-8,1.53-5.92,2.4-9.3,1-12Z" style="fill:#dfc13f;"/><path d="M2400,752c-52.46-38.11-72-47-72-47-16.34-7.43-10.03-3.87-50-21-13.45-5.76-21.28-9.22-33-13-10.18-3.28-12.15-2.86-25.56-6.82,0,0-11.76-3.48-24.44-8.18-30.43-11.28-72.91-58.4-125-88-16.18-9.19-52.79-29.97-96-38-7.82-1.45-21.96-3.62-40-11-19.38-7.93-33.63-17.93-45-26-5.25-3.73-18.12-13.12-34-28-8.77-8.22-26.87-25.35-46-51,0,0-15.78-21.16-43-45-1.83-1.6-6.43-5.49-12-5-3.61.32-6.15,2.34-7,3-7.62,5.95-28.74,18.63-71,44-20.57,12.35-30.86,18.53-40,19-59.47,3.08-112.44-133.41-147-122-8.19,2.7-14.88,13.56-25,11-7.81-1.98-11.91-10.5-14-15-21.15-45.52-42.5-92.2-56-91-3.98.35-7.77,4.92-13,3-3.43-1.26-5.12-4.44-6-6-1.51-2.67-11.34-12.12-31-31-11.77-11.3-13.17-11.87-15-12-8.37-.61-13.03,8.73-28,25-9.58,10.41-20.7,19.3-31,29-20.19,19-30.29,28.52-31,29-20.33,13.95-35.03,14.42-51,27-6.76,5.32-14.42,11.36-18,17-.45.71-2.11,3.36-5,6-3.52,3.21-7.02,4.59-8,5-8.78,3.68-25.25,17.12-30,21,0,0-20.48,16.72-35,44-1.59,2.99-3.28,6.73-2,8,1.22,1.22,4.65-.36,6-1,14.23-6.73,40-32,40-32,19.79-16.73,36.53-26.47,43-28,5.99-1.41,10.15-1.09,10.15-1.09,2.75.21,3.88.73,7.49,1.06,0,0,3.74.34,8.36.03,9.72-.66,26.13-6.96,36-8,14.52-1.53,33.16,6.42,35,16,3.06,15.97-41,34.15-37,44,1.24,3.05,6.46,3.62,10,4,11.1,1.2,17.47-4.76,32-12,14.61-7.28,26.87-10.59,37-12,18.02-2.52,22.85,1.85,24,3,5.51,5.5,4.39,14.77,4,18-2.06,17.05-14.57,22.34-33,49-6.88,9.96-15.57,22.71-12,27,2.53,3.04,10.16.57,15-1,14.98-4.86,20.17-12.2,36-23,14.02-9.56,21.21-14.32,30-13,11.43,1.71,22.1,12.94,21,21-.67,4.91-5.33,5.85-7,13-.85,3.65-1.54,11.59,2,14,8.64,5.88,36.29-25.36,53-21,5.52,1.44,9,5,9,5,3.68,3.77,3.94,7.63,5,10,4.47,9.97,30.06,8.5,74,10,8.93.31,17.42.7,26,6,6.9,4.27,7.01,7.47,16,15,9.76,8.17,12.01,6.39,24,15,11.05,7.93,20.43,14.88,21,25,.31,5.61-2.18,10.43-3,12-2.98,5.75-7.34,8.9-12,12-13.28,8.84-19.92,13.25-28,16-12.54,4.26-14.97,1.59-38,7-4.01.94-8.75,2.06-15,4-25.63,7.94-35.31,16.74-40,22-2.94,3.3-6.07,6.81-5,9,2.53,5.15,26.26-1.2,33-3,11.09-2.96,14.14-5,25-7,7.04-1.3,12.36-1.66,18-2,39.46-2.4,41.34-.67,52-3,5.01-1.1,14.67-5.73,34-15,21.57-10.34,32.52-15.67,41-23,11.2-9.69,23.9-20.68,22-32-1.62-9.64-15.41-18.76-43-37-5.36-3.54-12.41-8.02-13-15-.49-5.81,3.75-10.47,8-15,5.79-6.18,10.95-9.13,49-23,4.04-1.47,8.71-3.12,11-1,3.08,2.84.47,11.15-2,19-2.92,9.31-5.03,11.12-4,15,1.46,5.49,7.42,8.31,11,10,9.66,4.57,19.13,2.78,23,2,8.66-1.75,11.43-4.89,17-7,5.05-1.91,13.99-3.57,51,14,25.75,12.23,38.62,18.5,38,26-.44,5.27-7.38,9.91-15,15-7.39,4.94-10.24,4.71-15,9-6.46,5.83-8.68,12.99-10,17-2.36,7.14-11.86,35.92-22,49-6.92,8.93-12.51,8.44-60,23-54.8,16.8-61.34,21.74-61,25,.36,3.45,8.44,5.22,12,6,15.7,3.45,27.93-2.12,40-6,14.45-4.64,26.96-5.76,52-8,27.52-2.46,28.01,1.04,50-2,22.95-3.17,23.25-7.1,46-10,3.39-.43,5.71-.63,7.79-.7,5.68-.19,9.95.07,11.47.18,6.55.49,27.78,1.67,42.74,1.51,22.31-.23,28.96-3.41,34,2,3.43,3.68,5.54,10.72,3,16-5.39,11.18-28.3,3.65-56,19-3.62,2-12.87,7.13-12,11,.81,3.59,10,4.59,20,5,26.31,1.07,47.39-2.41,57-4,0,0,38.59-6.38,82-9,2.57-.16,8.09-.45,15,1,11.57,2.43,19.29,8.12,22,10,9.98,6.91,23.56,8.97,50,16,33.92,9.02,41.46,1.61,98,11,17.23,2.86,22.62,4.56,28,7,15.01,6.8,19.66,14.69,42,26,3.8,1.92,6.87,3.28,13,6,28.35,12.56,27.7,8.91,41,16,0,0,6.82,3.64,18,6,1.13.24,3.8.77,7,0,3.06-.74,7.61-2.91,8-6,.38-3.02-3.35-5.8-5-7Z" style="fill:#dfc13f;"/><path d="M1567,717c.31-1.09.31-3.5-5-8-10.55-8.93-19.53-7-34-14-11.12-5.38-18.95-12.88-22-16-4.06-4.16-3.73-4.77-12.75-14.73-6.87-7.58-10.59-11.19-14.25-14.27-3.17-2.67-6.22-5.04-9.13-7.14-10.11-7.3-18.33-11.53-20.87-12.86-24.96-13.05-60.67-40.84-113-68-11.37-5.9-10.35-4.79-20-10-14.75-7.95-25.29-14.97-40-18-3.9-.8-8.97-1.5-14,1-4.39,2.19-6.83,5.86-8,8-3.37,4.07-8.66,9.93-16,16-9.79,8.1-18.11,12.34-23,15,0,0-21.06,11.46-43,31-21.97,19.56-13.76,24.77-35,46-19.43,19.42-47.91,36.68-60,44-10.06,6.09-25.63,14.95-24,21,.62,2.28,3.48,3.4,5,4,9.62,3.77,20.61-2.44,25-5,26.92-15.72,46-34.86,72-51,3.24-2.01,15.98-9.8,34-17,0,0,18.12-7.24,53-10,2.66-.21,6.98-.5,11,2,6.96,4.32,10.39,15.39,8,24-4.83,17.36-33.41,25.07-37,26-4.69,1.21-8.77,1.72-14,5-8.38,5.25-15.36,14.88-13,19,1.27,2.23,5.09,2.53,12,2,20.19-1.55,35.5-7.79,36-8,24.42-9.97,51.79-13.77,74-28,.9-.58,5.1-3.37,7-2,.85.61.99,1.88,1,2,.18,1.93-1.55,3.55-2,4-4.07,4.01-11.37,17.76-20,34-6.29,11.85-6.05,14.45-5,16,2.34,3.45,9.31,2.58,14,2,8.22-1.02,13.97-3.96,22-8,6.66-3.35,13.5-6.35,20-10,6.97-3.91,36.27-20.36,64-25,11.91-1.99,31.12-3.08,56,5,4.35,1.78,11.23,4.71,19.52,8.73,17.22,8.35,18.28,10.64,27.48,13.27,8.06,2.31,7.36.59,28,3,.86.1,5.09.6,10-1,2.16-.7,5.36-1.75,6-4Z" style="fill:#dfc13f;"/></g><g id="c"><path d="M555,722c-3.69-4.86-22.66-.77-26,9-.33.97-1.12,3.28,0,5,3.1,4.75,19.85,3.4,25-6,.34-.61,2.97-5.41,1-8Z" style="fill:#dfc13f;"/><path d="M525,739c-.38-.65-1.21-.9-2-1-13.99-1.79-23,1-23,1-5.22,1.62-14.63,4.66-23,13-2.62,2.61-7.94,7.91-6.46,11.21.38.85,1.72,2.67,10.46,2.79,8.09.12,18.88.31,30-7,0,0,10.07-6.62,14-18,.11-.33.44-1.26,0-2Z" style="fill:#dfc13f;"/><path d="M468,767c-.35-.48-.86-.72-2-1-2.77-.68-8.68-1.45-19,3-2.75,1.19-4.13,1.78-6,3-5.76,3.76-8.57,8.52-10,11-2.14,3.71-5.06,8.79-3.29,10.96.55.68,2,1.62,9.12-.23,7.13-1.85,15.55-4.03,23.17-11.74,4.37-4.42,10.02-12.22,8-15Z" style="fill:#dfc13f;"/><path d="M425,795c-.15-.37-.67-1.31-6-2-3.62-.47-7.42-.96-13,0-5.38.93-9.5,1.64-13,5-2.16,2.07-5.35,6.37-4,9,1.38,2.69,6.83,2.28,11.91,1.89,3.91-.3,10.56-.88,17.11-5.39.59-.41,8.09-5.64,6.97-8.5Z" style="fill:#dfc13f;"/><path d="M1017,737c-1.88-2.89-8.07-1.45-10-1-6.1,1.42-12.65,5.86-12,9,.31,1.51,2.18,2.27,4,3,3.96,1.6,10.69,2.23,15-2,2.3-2.26,4.58-6.56,3-9Z" style="fill:#dfc13f;"/><path d="M991,753c-1-1.74-5.33-.9-10,0-1.81.35-18.77,3.62-19,10-.09,2.65,2.73,5.05,5,6,3.85,1.61,7.71-.31,11-2,7.44-3.83,14.55-11.32,13-14Z" style="fill:#dfc13f;"/><path d="M958,768c-4.25-3.58-19.86,5.34-19,9,.49,2.09,6.38,2.5,10,2,1.18-.16,8.69-1.19,10-6,.39-1.43.4-3.82-1-5Z" style="fill:#dfc13f;"/><path d="M1084.92,386.88c-7.32-.99-13.72,1.5-16.18,6.22-1.38,2.66-1.99,6.92,0,8.71,2.75,2.47,10.11-.12,13.69-4.98,2.87-3.9,2.64-8.37,2.49-9.95Z" style="fill:#dfc13f;"/><path d="M1058.79,409.28c-1.45-2.26-9.18-2.05-12.44,2.49-1.92,2.68-2.73,7.47,0,9.95,2.39,2.18,6.43,1.6,8.71,0,2.14-1.5,2.67-4.32,3.73-9.95.29-1.55.29-2.04,0-2.49Z" style="fill:#dfc13f;"/></g><rect x="76.24" y="827.4" width="2641.76" height="261.6" style="fill:none;"/><path d="M320,1006.03c-2.07,10.81-11.74,44.83-14.94,54.7h-153.41v-9.66c29.49-2.76,32.1-4.51,32.1-32.16v-128.48c0-27.65-3.26-29.46-29.05-31.95v-9.66h89.95v9.66c-25.96,2.55-29.49,4.03-29.49,31.95v131.57c0,19.53,2.26,24.74,20.72,25.07.38.06,22.33.33,24.17.33,16.98,0,21.87-2.31,29.43-10.58,7.8-8.12,14.94-21.34,20-33.64l10.52,2.84Z" style="fill:#dfc13f;"/><path d="M438.01,1060.74v-8.65c18.88-2.39,20.79-5.36,16.7-16.72-3.64-10.92-9.27-25.25-15.08-42.44h-61.97c-4.41,12.4-8.74,23.74-12.61,35.19-6.37,18.88-1.76,21.21,22.03,23.97v8.65h-68.29v-8.65c18.4-2.34,23.07-4.48,33.24-30.45l60.5-152.88,10.19-1.91c18.45,50.09,38.54,104.7,57.05,154.9,9.61,25.72,12.23,28,32.65,30.34v8.65h-74.39ZM409.44,907.99c-9.19,24.38-18.8,49.69-27.3,72.44h53.13l-25.84-72.44Z" style="fill:#dfc13f;"/><path d="M601.9,870.93c21.15,0,37.96,3.85,49.93,12.45,11.97,8.68,19.9,22.46,19.9,41.89,0,42.58-36.4,59.91-64.77,59.97-3.16,0-6.24-.29-8.04-.58l-19.57-5.1v44.5c0,24.53,2.04,25.22,28.65,28.03v8.65h-82.8v-8.65c24.53-2.63,26.02-4.22,26.02-28.51v-115.14c0-25.73-3.16-26.68-26.02-28.86v-8.65h76.7ZM579.35,968.96c3.5,1.75,11.02,3.64,20.27,3.64,18.46,0,42.28-9.56,42.28-46.67,0-32.23-20.45-44.71-43.98-44.71-8.05,0-13.71,1.46-15.46,3.4-2.28,1.99-3.11,5.39-3.11,12.64v71.69Z" style="fill:#dfc13f;"/><path d="M845.24,1011.74c-1.86,9.68-10.51,40.16-13.38,49h-137.41v-8.65c26.41-2.47,28.75-4.04,28.75-28.8v-115.09c0-24.77-2.92-26.39-26.02-28.62v-8.65h80.57v8.65c-23.26,2.28-26.42,3.61-26.42,28.62v117.85c0,17.5,2.02,22.16,18.56,22.46.34.05,20,.29,21.65.29,15.21,0,19.59-2.07,26.36-9.47,6.98-7.28,13.38-19.11,17.92-30.13l9.42,2.55Z" style="fill:#dfc13f;"/><path d="M979.96,1060.74v-8.65c18.88-2.39,20.79-5.36,16.7-16.72-3.64-10.92-9.27-25.25-15.08-42.44h-61.97c-4.41,12.4-8.74,23.74-12.61,35.19-6.37,18.88-1.76,21.21,22.03,23.97v8.65h-68.29v-8.65c18.4-2.34,23.07-4.48,33.24-30.45l60.5-152.88,10.19-1.91c18.45,50.09,38.54,104.7,57.05,154.9,9.61,25.72,12.24,28,32.65,30.34v8.65h-74.39ZM951.39,907.99c-9.19,24.38-18.8,49.69-27.3,72.44h53.13l-25.84-72.44Z" style="fill:#dfc13f;"/><path d="M1269.23,879.58c-18.53,2.1-24.56,5.17-25.43,18.55-.4,9.71-1.03,21.56-1.03,48.4v116.94h-12.04l-124.4-151.51v71.74c0,26.12.82,38.95,1.46,47.42.69,14.52,7.78,19.32,28.91,20.97v8.65h-71.22v-8.65c17.84-1.46,24.9-5.84,26.18-20.04.93-9.55,1.51-22.22,1.51-48.58v-73.52c0-8.44-.58-13.43-5.89-20.06-5.5-7.3-11.79-8.89-25.73-10.3v-8.65h46.17l121.55,143.73v-68.12c0-26.84-.53-38.87-1.41-48-.88-13.04-7.22-17.49-30.74-18.95v-8.65h72.13v8.65Z" style="fill:#dfc13f;"/><path d="M1375.56,870.93c40.49,0,66.74,8.12,84.95,25.4,14.41,13.96,25.08,34.4,25.08,62.7,0,34.06-14.02,61.43-36.5,78.37-22.09,16.59-50.31,23.33-85.75,23.33h-70.48v-8.65c24.59-2.23,26.02-4.38,26.02-28.38v-115.51c0-25.01-3.45-26.39-26.02-28.62v-8.65h82.7ZM1347.01,1021.43c0,21.69,8.61,27.98,30.4,27.98,50.2,0,76.32-34.39,76.32-86.23,0-31.09-10.23-55.33-31.56-69.08-13.22-9.15-29.84-12.52-49.41-12.52-12.72,0-19.36,1.86-22.07,4.09-2.63,1.91-3.69,5.44-3.69,16.3v119.47Z" style="fill:#dfc13f;"/><path d="M1697.84,899.15c-5.72-21.4-14.85-43.06-45.37-43.06-24.25,0-33.7,17.64-33.7,34.83,0,21.67,13.93,32.97,41.29,47.04,38.36,19.68,56.25,35.03,56.25,66.24,0,34.99-30.08,61.43-72.95,61.43-19.79,0-37.04-5.54-50.76-10.64-2.49-8.83-6.7-33.12-8.98-50.31l10.58-2.67c6.52,21.61,21.57,51.26,55.12,51.26,22.83,0,36.76-15.6,36.76-36.73,0-23.99-13.07-34.27-41.53-49.74-34.17-18.52-53.93-34.29-53.93-65.25s24.59-57.28,68.68-57.28c19.02,0,36.77,4.89,43.68,6.14,1.3,11.79,2.78,25.54,5.39,46.61l-10.52,2.13Z" style="fill:#dfc13f;"/><path d="M1821.67,870.93c21.15,0,37.96,3.85,49.93,12.45,11.97,8.68,19.9,22.46,19.9,41.89,0,42.58-36.4,59.91-64.77,59.97-3.16,0-6.24-.29-8.04-.58l-19.57-5.1v44.5c0,24.53,2.04,25.22,28.65,28.03v8.65h-82.8v-8.65c24.53-2.63,26.02-4.22,26.02-28.51v-115.14c0-25.73-3.16-26.68-26.02-28.86v-8.65h76.7ZM1799.12,968.96c3.5,1.75,11.02,3.64,20.27,3.64,18.46,0,42.28-9.56,42.28-46.67,0-32.23-20.45-44.71-43.98-44.71-8.05,0-13.71,1.46-15.46,3.4-2.28,1.99-3.11,5.39-3.11,12.64v71.69Z" style="fill:#dfc13f;"/><path d="M2065.01,1011.74c-1.86,9.68-10.51,40.16-13.38,49h-137.41v-8.65c26.41-2.47,28.75-4.04,28.75-28.8v-115.09c0-24.77-2.92-26.39-26.02-28.62v-8.65h80.57v8.65c-23.26,2.28-26.42,3.61-26.42,28.62v117.85c0,17.5,2.02,22.16,18.56,22.46.34.05,20,.29,21.65.29,15.21,0,19.59-2.07,26.36-9.47,6.99-7.28,13.38-19.11,17.92-30.13l9.42,2.55Z" style="fill:#dfc13f;"/><path d="M2199.72,1060.74v-8.65c18.88-2.39,20.79-5.36,16.7-16.72-3.64-10.92-9.27-25.25-15.08-42.44h-61.97c-4.41,12.4-8.74,23.74-12.62,35.19-6.37,18.88-1.76,21.21,22.03,23.97v8.65h-68.29v-8.65c18.4-2.34,23.07-4.48,33.24-30.45l60.5-152.88,10.19-1.91c18.45,50.09,38.54,104.7,57.05,154.9,9.61,25.72,12.24,28,32.65,30.34v8.65h-74.39ZM2171.15,907.99c-9.19,24.38-18.8,49.69-27.3,72.44h53.13l-25.84-72.44Z" style="fill:#dfc13f;"/><path d="M2394.32,916c-5.12-19.17-13.3-38.57-40.64-38.57-21.72,0-30.19,15.8-30.19,31.2,0,19.41,12.48,29.53,36.98,42.14,34.36,17.63,50.38,31.38,50.38,59.33,0,31.34-26.94,55.02-65.35,55.02-17.73,0-33.18-4.96-45.47-9.53-2.23-7.91-6-29.66-8.04-45.06l9.47-2.39c5.84,19.35,19.32,45.92,49.37,45.92,20.45,0,32.93-13.97,32.93-32.9,0-21.49-11.71-30.7-37.2-44.55-30.61-16.59-48.31-30.71-48.31-58.45s22.03-51.31,61.52-51.31c17.04,0,32.94,4.38,39.12,5.5,1.17,10.56,2.49,22.88,4.83,41.75l-9.42,1.91Z" style="fill:#dfc13f;"/><path d="M2641.39,879.58c-23.97,2.34-26.26,3.85-26.26,28.32v116.15c0,24.48,2.58,25.51,26.26,28.03v8.65h-80.41v-8.65c24.03-2.92,26.26-3.56,26.26-28.03v-57.77h-96.08v57.77c0,24.24,2.39,25.22,25.97,28.03v8.65h-80.12v-8.65c23.28-2.58,26.02-3.56,26.02-28.03v-116.15c0-24.48-2.63-26.09-26.02-28.32v-8.65h80.12v8.65c-23.15,2.04-25.97,4.09-25.97,28.32v45.59h96.08v-45.59c0-24.24-3.16-26.23-26.26-28.32v-8.65h80.41v8.65Z" style="fill:#dfc13f;"/></svg>